# xmcd
#
# Track frame offsets: 
#        183
#        20985
#        34105
#        56938
#        70683
#        89048
#        112405
#        123983
#        138978
#        152545
#        167895
#
# Disc length: 2511 seconds
#
# Revision: 2
# Processed by: cddbd v1.5.2PL0 Copyright (c) Steve Scherf et al.
# Submitted via: ExactAudioCopy v0.95b4
#
DISCID=a309cd0b
DTITLE=Omar And The Howlers - Monkey Land
DYEAR=1990
DGENRE=Blues
TTITLE0=Monkey Land
TTITLE1=Tonight I Think Of You
TTITLE2=Big Town Shakedown
TTITLE3=She's A Woman
TTITLE4=Fire In The Jungle
TTITLE5=Night Shadows
TTITLE6=Modern Man
TTITLE7=Loud Mouth Woman
TTITLE8=Dirty People
TTITLE9=Ding Dong Clock
TTITLE10=Next Big Thing
EXTD=OMAR AND THE HOWLERS "MONKEY LAND" (1990]\n\nAntone's Records And
EXTD=Tapes - Provogue\nPRD 70132
EXTT0=
EXTT1=
EXTT2=
EXTT3=
EXTT4=
EXTT5=
EXTT6=
EXTT7=
EXTT8=
EXTT9=
EXTT10=
PLAYORDER=
